<?xml version="1.0" encoding="UTF-8"?>
<svg width="200px" height="200px" viewBox="0 0 200 200" version="1.1" xmlns="http://www.w3.org/2000/svg" xmlns:xlink="http://www.w3.org/1999/xlink">
    <title>404-icon</title>
    <g id="Page-1" stroke="none" stroke-width="1" fill="none" fill-rule="evenodd">
        <g id="404" transform="translate(-621.000000, -196.000000)" fill="#646464" fill-rule="nonzero">
            <g id="404-icon" transform="translate(621.000000, 196.000000)">
                <g id="Group">
                    <path d="M198.506289,86.4386792 C198.506289,102.555189 185.377241,115.684002 169.261006,115.684002 L146.265566,115.684002 C151.336478,107.429324 154.127201,97.8381289 154.127201,87.6965409 C154.127201,57.9402516 129.95283,33.7658805 100.235849,33.7658805 C70.4795204,33.7658805 46.3049135,57.9402516 46.3049135,87.6965802 C46.3049135,97.8381682 49.0958726,107.468711 54.1665487,115.684002 L31.2106918,115.684002 C15.0941824,115.684002 1.96540881,102.555189 1.96540881,86.4387186 C1.96540881,70.4402516 14.7799135,57.3898978 30.6209906,57.1934355 C35.416706,43.1997248 48.6635613,35.5739387 59.748467,35.3380896 C63.4825472,16.0772013 80.267217,1.96544811 100.235849,1.96544811 C120.204481,1.96544811 136.988915,16.0772013 140.723231,35.3380503 C151.808176,35.6132469 165.054992,43.1996855 169.81136,57.1933962 C185.691785,57.429206 198.506289,70.4795597 198.506289,86.4386792 Z" id="Path"></path>
                    <g transform="translate(53.183962, 41.391509)">
                        <path d="M63.0897013,97.7595519 L63.0897013,104.048781 C63.0897013,106.01419 61.5172956,107.586596 59.5518868,107.586596 L56.7215802,107.586596 L59.3553459,143.867964 C59.8663522,151.022091 54.2453223,157.114819 47.0518868,157.114819 C39.8584513,157.114819 34.1980346,151.022091 34.7484277,143.867964 L37.3819969,107.586596 L34.5519261,107.586596 C32.5865173,107.586596 30.9747642,106.01419 30.9747642,104.048781 L30.9747642,97.7595519 C36.0847877,99.3317217 41.4702044,100.196659 47.0519261,100.196659 C52.6336478,100.196659 58.0187893,99.331761 63.0897013,97.7595519 Z" id="Path"></path>
                        <path d="M47.0518868,0.236006289 C21.6587264,0.236006289 0.982586478,20.9119104 0.982586478,46.3050708 C0.982586478,72.2510613 22.1191038,92.3350236 47.0518868,92.3350236 C72.2185535,92.3350236 93.0816038,72.0617531 93.0816038,46.3050708 C93.0816038,20.9119104 72.4448113,0.236006289 47.0518868,0.236006289 Z M47.0529874,78.2759041 C29.6843947,78.2759041 15.041706,64.2714623 15.041706,46.3061321 C15.041706,28.6419025 29.3887579,14.2951258 47.0529874,14.2951258 C64.6757075,14.2951258 79.0224843,28.6419418 79.0224843,46.3061321 C79.0224843,64.3426887 64.3884827,78.2759041 47.0529874,78.2759041 Z" id="Shape"></path>
                    </g>
                </g>
                <g id="Group" transform="translate(72.838050, 74.685535)">
                    <path d="M11.3125,22.9186714 L11.3125,16.9207154 L1.07472484,16.9207154 L1.07472484,14.9553066 L10.9056211,0.890330189 L14.122445,0.890330189 L14.122445,14.5829403 L17.2087657,14.5829403 L17.2087657,16.9207154 L14.122445,16.9207154 L14.122445,22.9186714 L11.3125,22.9186714 Z M11.3125,14.5830189 L11.3125,7.22806604 C11.3125,6.0764544 11.3431997,4.92484277 11.4123035,3.77134434 L11.3125,3.77134434 C10.6330582,5.05923742 10.0917846,6.00931604 9.48144654,7.02464623 L4.09194182,14.5139151 L4.09194182,14.5830189 L11.3125,14.5830189 L11.3125,14.5830189 Z" id="Shape"></path>
                    <path d="M34.1143082,11.6674921 C34.1143082,19.156761 31.3351022,23.2910377 26.4561321,23.2910377 C22.1529481,23.2910377 19.2355739,19.2584906 19.170283,11.9726808 C19.170283,4.58514151 22.3564072,0.518042453 26.8284591,0.518042453 C31.4694575,0.518042453 34.1143082,4.65227987 34.1143082,11.6674921 Z M22.1529481,12.0072327 C22.1529481,17.7345519 23.9148978,20.9878538 26.6250393,20.9878538 C29.6768082,20.9878538 31.1316431,17.4294025 31.1316431,11.8037736 C31.1316431,6.38164308 29.7420204,2.82315252 26.6595519,2.82315252 C24.0492531,2.82315252 22.1529481,6.00927673 22.1529481,12.0072327 Z" id="Shape"></path>
                    <path d="M46.0756682,22.9186714 L46.0756682,16.9207154 L35.8378931,16.9207154 L35.8378931,14.9553066 L45.6687893,0.890330189 L48.8856132,0.890330189 L48.8856132,14.5829403 L51.971934,14.5829403 L51.971934,16.9207154 L48.8856132,16.9207154 L48.8856132,22.9186714 L46.0756682,22.9186714 Z M46.0756682,14.5830189 L46.0756682,7.22806604 C46.0756682,6.0764544 46.1063679,4.92484277 46.1754717,3.77134434 L46.0756682,3.77134434 C45.3962264,5.05923742 44.8549528,6.00931604 44.2446148,7.02464623 L38.8551101,14.5139151 L38.8551101,14.5830189 L46.0756682,14.5830189 L46.0756682,14.5830189 Z" id="Shape"></path>
                </g>
            </g>
        </g>
    </g>
</svg>