<?xml version="1.0" encoding="UTF-8"?>
<svg width="1200pt" height="1200pt" version="1.1" viewBox="0 0 1200 1200" xmlns="http://www.w3.org/2000/svg">
 <g fill="#fff" stroke="#fff" stroke-miterlimit="10">
  <path transform="scale(12.5)" d="m48.4 47c6.6-0.2 11.8-5.6 11.8-12.2 0-6.7-5.5-12.2-12.2-12.2-3.4 0-6.5 1.3-8.8 3.8-2.3 2.4-3.5 5.6-3.4 9 0.2 6.4 5.8 11.6 12.2 11.6h0.4zm-10.1-8.9c-0.3-0.9-0.5-1.9-0.6-2.9-0.1-2.8 0.9-5.5 2.8-7.5 2-2 4.6-3.2 7.4-3.2 5.6 0 10.2 4.6 10.2 10.2 0 5.5-4.3 10-9.9 10.2h-0.3c-4.2 0.1-8.1-2.8-9.6-6.8z"/>
  <path transform="scale(12.5)" d="m83.2 76-13.6-20.9c-0.7-1-1.8-1.6-3-1.6h-7.4l4.9-6.4c2.7-3.6 4.2-7.8 4.2-12.3 0-4.4-1.5-8.8-4.2-12.3-3.9-5.1-9.7-8-16.1-8s-12.3 2.9-16.1 8c-5.6 7.3-5.6 17.4 0 24.7l4.9 6.4h-7.4c-1.2 0-2.3 0.6-3 1.6l-13.6 20.8c-0.7 1.1-0.8 2.5-0.1 3.6 0.6 1.2 1.8 1.8 3.1 1.8h64.5c1.3 0 2.5-0.7 3.1-1.8s0.5-2.5-0.2-3.6zm-49.7-52.3c3.5-4.6 8.8-7.2 14.5-7.2s11.1 2.6 14.5 7.2c2.4 3.2 3.8 7.1 3.8 11.1s-1.3 7.9-3.8 11.1l-12.4 16.2c-0.5 0.7-1.3 1.1-2.1 1.1s-1.6-0.4-2.1-1.1l-12.4-16.2c-5-6.5-5-15.7 0-22.2zm48.1 55c-0.3 0.5-0.8 0.8-1.3 0.8h-64.6c-0.6 0-1.1-0.3-1.3-0.8s-0.2-1.1 0.1-1.6l13.6-20.9c0.3-0.4 0.8-0.7 1.3-0.7h8.1c0.5 0 0.9 0.2 1.2 0.6l6.5 8.5c0.7 0.9 1.7 1.4 2.8 1.4s2.1-0.5 2.8-1.4l6-7.9 0.4-0.6c0.3-0.4 0.7-0.6 1.2-0.6h8.1c0.5 0 1 0.3 1.3 0.7l13.6 20.9c0.4 0.5 0.5 1.1 0.2 1.6z"/>
 </g>
</svg>
