<?xml version="1.0" encoding="UTF-8"?>
<svg width="1200pt" height="1200pt" version="1.1" viewBox="0 0 1200 1200" xmlns="http://www.w3.org/2000/svg">
 <g fill="#fff">
  <path d="m600 506.25c-103.39 0-187.5 84.113-187.5 187.5s84.113 187.5 187.5 187.5 187.5-84.113 187.5-187.5-84.113-187.5-187.5-187.5zm0 337.5c-82.707 0-150-67.293-150-150s67.293-150 150-150 150 67.293 150 150-67.293 150-150 150z"/>
  <path d="m543.75 693.75c0 31.012 25.238 56.25 56.25 56.25s56.25-25.238 56.25-56.25-25.238-56.25-56.25-56.25-56.25 25.238-56.25 56.25zm75 0c0 10.332-8.3984 18.75-18.75 18.75s-18.75-8.418-18.75-18.75 8.3984-18.75 18.75-18.75 18.75 8.418 18.75 18.75z"/>
  <path d="m1080 247.5c-57.883-43.426-197.23-116.25-480-116.25s-422.12 72.824-480 116.25c-85.238 63.918-120 133.46-120 240 0 20.68 16.82 37.5 37.5 37.5h206.25v506.25c0 20.68 16.82 37.5 37.5 37.5h637.5c20.68 0 37.5-16.82 37.5-37.5v-506.25h206.25c20.68 0 37.5-16.82 37.5-37.5 0-106.54-34.762-176.08-120-240zm-937.5 30c43.594-32.699 175.45-108.75 457.5-108.75s413.91 76.051 457.5 108.75c53.289 39.977 83.57 81.113 96.824 135h-198.07v-18.75c0-20.68-16.82-37.5-37.5-37.5h-37.5c0-20.68-16.82-37.5-37.5-37.5h-150c-20.68 0-37.5 16.82-37.5 37.5h-112.5c0-20.68-16.82-37.5-37.5-37.5h-150c-20.68 0-37.5 16.82-37.5 37.5h-37.5c-20.68 0-37.5 16.82-37.5 37.5v18.75h-198.07c13.254-53.887 43.52-95.023 96.824-135zm776.25 153.75h-37.5v-37.5h37.5zm-75-56.25v56.25h-150v-75h150zm-187.5 56.25h-112.5v-37.5h112.5zm-150-56.25v56.25h-150v-75h150zm-187.5 56.25h-37.5v-37.5h37.5zm-37.5 75v-37.5h637.5v450h-637.5zm-241.91-56.25h204.41v37.5h-206.25c0-13.18 0.63672-25.613 1.8359-37.5zm241.91 581.25v-75h637.5v75zm675-543.75v-37.5h204.41c1.1992 11.887 1.8359 24.32 1.8359 37.5z"/>
  <path d="m618.75 806.25c0 10.355-8.3945 18.75-18.75 18.75s-18.75-8.3945-18.75-18.75 8.3945-18.75 18.75-18.75 18.75 8.3945 18.75 18.75"/>
  <path d="m618.75 581.25c0 10.355-8.3945 18.75-18.75 18.75s-18.75-8.3945-18.75-18.75 8.3945-18.75 18.75-18.75 18.75 8.3945 18.75 18.75"/>
  <path d="m731.25 693.75c0 10.355-8.3945 18.75-18.75 18.75s-18.75-8.3945-18.75-18.75 8.3945-18.75 18.75-18.75 18.75 8.3945 18.75 18.75"/>
  <path d="m506.25 693.75c0 10.355-8.3945 18.75-18.75 18.75s-18.75-8.3945-18.75-18.75 8.3945-18.75 18.75-18.75 18.75 8.3945 18.75 18.75"/>
  <path d="m493.2 733.76c-8.9609 5.1758-12.039 16.648-6.8633 25.613 5.1758 8.9609 16.648 12.039 25.613 6.8633 8.9609-5.1758 12.039-16.648 6.8633-25.613-5.1758-8.9609-16.648-12.039-25.613-6.8633z"/>
  <path d="m688.05 621.26c-8.9609 5.1758-12.039 16.648-6.8633 25.613 5.1758 8.9609 16.648 12.039 25.613 6.8633 8.9609-5.1758 12.039-16.648 6.8633-25.613-5.1758-8.9609-16.652-12.039-25.613-6.8633z"/>
  <path d="m646.88 774.94c-8.9609 5.1758-12.039 16.648-6.8633 25.613 5.1758 8.9609 16.648 12.039 25.613 6.8633 8.9609-5.1758 12.039-16.648 6.8633-25.613-5.1758-8.9648-16.652-12.039-25.613-6.8633z"/>
  <path d="m553.12 612.56c8.9609-5.1758 12.039-16.648 6.8633-25.613-5.1758-8.9609-16.648-12.039-25.613-6.8633-8.9609 5.1758-12.039 16.648-6.8633 25.613 5.1758 8.9648 16.652 12.039 25.613 6.8633z"/>
  <path d="m553.12 774.94c-8.9609-5.1758-20.438-2.1016-25.613 6.8633-5.1758 8.9609-2.1016 20.438 6.8633 25.613 8.9609 5.1758 20.438 2.1016 25.613-6.8633 5.1758-8.9648 2.0977-20.438-6.8633-25.613z"/>
  <path d="m665.62 580.09c-8.9609-5.1758-20.438-2.1016-25.613 6.8633-5.1758 8.9609-2.1016 20.438 6.8633 25.613 8.9609 5.1758 20.438 2.1016 25.613-6.8633 5.1758-8.9609 2.0977-20.438-6.8633-25.613z"/>
  <path d="m706.8 733.76c-8.9609-5.1758-20.438-2.1016-25.613 6.8633-5.1758 8.9609-2.1016 20.438 6.8633 25.613 8.9609 5.1758 20.438 2.1016 25.613-6.8633 5.1719-8.9609 2.0977-20.438-6.8633-25.613z"/>
  <path d="m511.95 621.26c-8.9609-5.1758-20.438-2.1016-25.613 6.8633-5.1758 8.9609-2.1016 20.438 6.8633 25.613 8.9609 5.1758 20.438 2.1016 25.613-6.8633 5.1758-8.9609 2.1016-20.438-6.8633-25.613z"/>
 </g>
</svg>
