<?xml version="1.0" encoding="UTF-8"?>
<svg width="1200pt" height="1200pt" version="1.1" viewBox="0 0 1200 1200" xmlns="http://www.w3.org/2000/svg">
 <path d="m153.84 1160.9h892.32c28.082-0.03125 55-11.207 74.848-31.078 19.844-19.867 30.992-46.801 30.992-74.879v-566.64c-0.007812-8.8398-3.918-17.227-10.68-22.922l-147.72-124.8v-217.56c0-22.277-8.8516-43.645-24.605-59.398-15.754-15.75-37.117-24.602-59.395-24.602h-613.32c-22.281 0-43.645 8.8516-59.398 24.602-15.754 15.754-24.602 37.121-24.602 59.398v213l-153.6 129.36c-6.7617 5.6953-10.672 14.082-10.68 22.922v566.64c0 28.078 11.148 55.012 30.992 74.879 19.848 19.871 46.766 31.047 74.848 31.078zm892.2-60h-892.2c-12.168-0.03125-23.828-4.8867-32.422-13.504-8.5938-8.6133-13.418-20.285-13.418-32.453v-509.4l342 241.92-242.76 185.76c-8.5742 6.4297-13.066 16.949-11.781 27.59 1.2812 10.641 8.1406 19.789 18 24 9.8555 4.2109 21.207 2.8398 29.781-3.5898l258.12-197.52 84 60c5.0703 3.5898 11.129 5.5195 17.34 5.5195 6.2109 0 12.273-1.9297 17.34-5.5195l84-60 258.24 197.16c8.5742 6.4297 19.926 7.8008 29.785 3.5898 9.8555-4.2109 16.715-13.359 18-24 1.2812-10.641-3.2109-21.16-11.785-27.59l-242.28-185.4 336-237.6v505.2c-0.03125 12.148-4.8711 23.789-13.461 32.379-8.5898 8.5898-20.23 13.43-32.379 13.461zm29.16-612.72-81.598 57.719v-126.84zm-778.92-389.04h613.44c6.3672 0 12.473 2.5273 16.973 7.0273s7.0273 10.605 7.0273 16.973v464.88l-330.72 234.12-330.6-234.12v-465c0.03125-6.3242 2.5586-12.379 7.0312-16.852 4.4727-4.4727 10.527-6.9961 16.852-7.0273zm-84 446.76-84.961-60 84.961-72zm387.72 122.16h7.6797c10.719 0 20.621-5.7188 25.98-15s5.3594-20.719 0-30-15.262-15-25.98-15h-7.6797c-50.73 0-99.383-20.152-135.25-56.023-35.875-35.871-56.027-84.523-56.027-135.25s20.152-99.387 56.027-135.26c35.871-35.871 84.523-56.023 135.25-56.023s99.383 20.152 135.25 56.023c35.875 35.871 56.027 84.527 56.027 135.26v51.238c-0.6875 11.465-7.2031 21.777-17.262 27.32-10.059 5.543-22.258 5.543-32.316 0-10.059-5.543-16.574-15.855-17.262-27.32v-51.238c0.24609-37.953-16.789-73.953-46.293-97.828-29.5-23.875-68.262-33.027-105.33-24.871-37.062 8.1562-68.402 32.738-85.156 66.789-16.758 34.055-17.105 73.879-0.94922 108.22 16.156 34.34 47.059 59.465 83.977 68.27 36.918 8.8047 75.832 0.33203 105.75-23.023 13.586 24.293 37.301 41.254 64.68 46.266 27.375 5.0078 55.562-2.457 76.871-20.367 21.305-17.906 33.512-44.387 33.289-72.219v-51.238c0-66.645-26.477-130.56-73.598-177.68-47.125-47.125-111.04-73.598-177.68-73.598s-130.56 26.473-177.68 73.598c-47.121 47.125-73.598 111.04-73.598 177.68 0 66.641 26.477 130.55 73.598 177.68 47.125 47.125 111.04 73.598 177.68 73.598zm0-186.84c-17.09 0-33.48-6.7891-45.566-18.875-12.086-12.082-18.875-28.473-18.875-45.562 0-17.094 6.7891-33.484 18.875-45.566 12.086-12.086 28.477-18.875 45.566-18.875s33.48 6.7891 45.566 18.875c12.086 12.082 18.875 28.473 18.875 45.566 0 17.09-6.7891 33.48-18.875 45.562-12.086 12.086-28.477 18.875-45.566 18.875z" fill="#fff"/>
</svg>
